<svg width="1200" height="630" viewBox="0 0 1200 630" xmlns="http://www.w3.org/2000/svg">
  <defs>
    <linearGradient id="bg" x1="0%" y1="0%" x2="100%" y2="100%">
      <stop offset="0%" style="stop-color:#0f766e"/>
      <stop offset="50%" style="stop-color:#0d9488"/>
      <stop offset="100%" style="stop-color:#06b6d4"/>
    </linearGradient>
    <linearGradient id="iconBg" x1="0%" y1="0%" x2="100%" y2="100%">
      <stop offset="0%" style="stop-color:rgba(255,255,255,0.2)"/>
      <stop offset="100%" style="stop-color:rgba(255,255,255,0.08)"/>
    </linearGradient>
    <!-- Grid pattern -->
    <pattern id="grid" width="60" height="60" patternUnits="userSpaceOnUse">
      <path d="M 60 0 L 0 0 0 60" fill="none" stroke="rgba(255,255,255,0.04)" stroke-width="1"/>
    </pattern>
    <!-- Radial glow -->
    <radialGradient id="glow1" cx="20%" cy="40%" r="50%">
      <stop offset="0%" style="stop-color:rgba(255,255,255,0.08)"/>
      <stop offset="100%" style="stop-color:rgba(255,255,255,0)"/>
    </radialGradient>
    <radialGradient id="glow2" cx="80%" cy="60%" r="40%">
      <stop offset="0%" style="stop-color:rgba(6,182,212,0.15)"/>
      <stop offset="100%" style="stop-color:rgba(6,182,212,0)"/>
    </radialGradient>
  </defs>

  <!-- Background -->
  <rect width="1200" height="630" fill="url(#bg)"/>
  <rect width="1200" height="630" fill="url(#grid)"/>
  <rect width="1200" height="630" fill="url(#glow1)"/>
  <rect width="1200" height="630" fill="url(#glow2)"/>

  <!-- Decorative circles -->
  <circle cx="950" cy="120" r="200" fill="rgba(255,255,255,0.03)"/>
  <circle cx="1000" cy="150" r="140" fill="rgba(255,255,255,0.03)"/>
  <circle cx="200" cy="500" r="160" fill="rgba(255,255,255,0.02)"/>

  <!-- Logo icon with background -->
  <rect x="80" y="200" width="80" height="80" rx="18" fill="url(#iconBg)" stroke="rgba(255,255,255,0.2)" stroke-width="1.5"/>
  <g transform="translate(94, 214) scale(2.17)" fill="none" stroke="white" stroke-width="2.2" stroke-linecap="round" stroke-linejoin="round">
    <path d="M16 7h6v6"/>
    <path d="m22 7-8.5 8.5-5-5L2 17"/>
  </g>

  <!-- App name -->
  <text x="180" y="258" font-family="system-ui, -apple-system, 'Segoe UI', sans-serif" font-size="56" font-weight="800" fill="white" letter-spacing="-1">OmniPOS</text>

  <!-- Tagline -->
  <text x="82" y="340" font-family="system-ui, -apple-system, 'Segoe UI', sans-serif" font-size="38" font-weight="600" fill="rgba(255,255,255,0.95)" letter-spacing="-0.5">The All-in-One POS System</text>
  <text x="82" y="390" font-family="system-ui, -apple-system, 'Segoe UI', sans-serif" font-size="38" font-weight="600" fill="rgba(255,255,255,0.95)" letter-spacing="-0.5">for Philippine Businesses</text>

  <!-- Feature pills -->
  <rect x="82" y="430" width="180" height="40" rx="20" fill="rgba(255,255,255,0.15)" stroke="rgba(255,255,255,0.25)" stroke-width="1"/>
  <text x="172" y="456" font-family="system-ui, -apple-system, 'Segoe UI', sans-serif" font-size="16" font-weight="600" fill="white" text-anchor="middle">17+ Modules</text>

  <rect x="280" y="430" width="200" height="40" rx="20" fill="rgba(255,255,255,0.15)" stroke="rgba(255,255,255,0.25)" stroke-width="1"/>
  <text x="380" y="456" font-family="system-ui, -apple-system, 'Segoe UI', sans-serif" font-size="16" font-weight="600" fill="white" text-anchor="middle">Multi-Branch</text>

  <rect x="498" y="430" width="200" height="40" rx="20" fill="rgba(255,255,255,0.15)" stroke="rgba(255,255,255,0.25)" stroke-width="1"/>
  <text x="598" y="456" font-family="system-ui, -apple-system, 'Segoe UI', sans-serif" font-size="16" font-weight="600" fill="white" text-anchor="middle">Free Plan Available</text>

  <!-- Bottom bar -->
  <rect x="82" y="520" width="1036" height="1" fill="rgba(255,255,255,0.15)"/>
  <text x="82" y="560" font-family="system-ui, -apple-system, 'Segoe UI', sans-serif" font-size="20" font-weight="500" fill="rgba(255,255,255,0.6)">omnipos.shop</text>
  <text x="1118" y="560" font-family="system-ui, -apple-system, 'Segoe UI', sans-serif" font-size="18" font-weight="500" fill="rgba(255,255,255,0.5)" text-anchor="end">Sales &bull; Inventory &bull; Analytics &bull; Multi-Branch</text>

  <!-- Mini POS mockup on the right -->
  <g transform="translate(750, 140)">
    <!-- Card background -->
    <rect width="370" height="340" rx="16" fill="rgba(255,255,255,0.1)" stroke="rgba(255,255,255,0.18)" stroke-width="1.5"/>

    <!-- Title bar -->
    <rect x="0" y="0" width="370" height="44" rx="16" fill="rgba(255,255,255,0.08)"/>
    <rect x="0" y="30" width="370" height="14" fill="rgba(255,255,255,0.08)"/>
    <circle cx="22" cy="22" r="5" fill="#ef4444" opacity="0.7"/>
    <circle cx="40" cy="22" r="5" fill="#eab308" opacity="0.7"/>
    <circle cx="58" cy="22" r="5" fill="#22c55e" opacity="0.7"/>
    <rect x="120" y="14" width="130" height="18" rx="9" fill="rgba(255,255,255,0.1)"/>
    <text x="185" y="28" font-family="system-ui, sans-serif" font-size="10" fill="rgba(255,255,255,0.4)" text-anchor="middle">omnipos.shop/pos</text>

    <!-- Category pills -->
    <rect x="16" y="60" width="50" height="24" rx="12" fill="rgba(255,255,255,0.25)"/>
    <text x="41" y="76" font-family="system-ui, sans-serif" font-size="10" fill="white" text-anchor="middle" font-weight="600">All</text>
    <rect x="74" y="60" width="62" height="24" rx="12" fill="rgba(255,255,255,0.08)"/>
    <text x="105" y="76" font-family="system-ui, sans-serif" font-size="10" fill="rgba(255,255,255,0.5)" text-anchor="middle">Coffee</text>
    <rect x="144" y="60" width="55" height="24" rx="12" fill="rgba(255,255,255,0.08)"/>
    <text x="171" y="76" font-family="system-ui, sans-serif" font-size="10" fill="rgba(255,255,255,0.5)" text-anchor="middle">Food</text>

    <!-- Product grid -->
    <rect x="16" y="96" width="100" height="70" rx="8" fill="rgba(255,255,255,0.08)" stroke="rgba(255,255,255,0.1)" stroke-width="1"/>
    <rect x="24" y="104" width="84" height="32" rx="4" fill="rgba(255,255,255,0.06)"/>
    <rect x="24" y="144" width="56" height="6" rx="3" fill="rgba(255,255,255,0.15)"/>
    <rect x="24" y="154" width="36" height="6" rx="3" fill="rgba(20,184,166,0.4)"/>

    <rect x="124" y="96" width="100" height="70" rx="8" fill="rgba(255,255,255,0.08)" stroke="rgba(255,255,255,0.1)" stroke-width="1"/>
    <rect x="132" y="104" width="84" height="32" rx="4" fill="rgba(255,255,255,0.06)"/>
    <rect x="132" y="144" width="56" height="6" rx="3" fill="rgba(255,255,255,0.15)"/>
    <rect x="132" y="154" width="36" height="6" rx="3" fill="rgba(20,184,166,0.4)"/>

    <rect x="16" y="174" width="100" height="70" rx="8" fill="rgba(255,255,255,0.08)" stroke="rgba(255,255,255,0.1)" stroke-width="1"/>
    <rect x="24" y="182" width="84" height="32" rx="4" fill="rgba(255,255,255,0.06)"/>
    <rect x="24" y="222" width="56" height="6" rx="3" fill="rgba(255,255,255,0.15)"/>
    <rect x="24" y="232" width="36" height="6" rx="3" fill="rgba(20,184,166,0.4)"/>

    <rect x="124" y="174" width="100" height="70" rx="8" fill="rgba(255,255,255,0.08)" stroke="rgba(255,255,255,0.1)" stroke-width="1"/>
    <rect x="132" y="182" width="84" height="32" rx="4" fill="rgba(255,255,255,0.06)"/>
    <rect x="132" y="222" width="56" height="6" rx="3" fill="rgba(255,255,255,0.15)"/>
    <rect x="132" y="232" width="36" height="6" rx="3" fill="rgba(20,184,166,0.4)"/>

    <!-- Cart sidebar -->
    <rect x="238" y="96" width="118" height="228" rx="8" fill="rgba(255,255,255,0.06)" stroke="rgba(255,255,255,0.1)" stroke-width="1"/>
    <text x="252" y="116" font-family="system-ui, sans-serif" font-size="11" fill="rgba(255,255,255,0.6)" font-weight="600">Cart (3)</text>

    <rect x="252" y="126" width="90" height="8" rx="4" fill="rgba(255,255,255,0.1)"/>
    <rect x="252" y="140" width="60" height="6" rx="3" fill="rgba(255,255,255,0.07)"/>
    <rect x="252" y="158" width="90" height="8" rx="4" fill="rgba(255,255,255,0.1)"/>
    <rect x="252" y="172" width="60" height="6" rx="3" fill="rgba(255,255,255,0.07)"/>
    <rect x="252" y="190" width="90" height="8" rx="4" fill="rgba(255,255,255,0.1)"/>
    <rect x="252" y="204" width="60" height="6" rx="3" fill="rgba(255,255,255,0.07)"/>

    <rect x="248" y="228" width="100" height="1" fill="rgba(255,255,255,0.1)"/>
    <text x="252" y="248" font-family="system-ui, sans-serif" font-size="10" fill="rgba(255,255,255,0.4)">Total</text>
    <text x="342" y="248" font-family="system-ui, sans-serif" font-size="12" fill="white" text-anchor="end" font-weight="700">₱385.00</text>

    <!-- Charge button -->
    <rect x="248" y="260" width="100" height="30" rx="6" fill="rgba(255,255,255,0.2)"/>
    <text x="298" y="280" font-family="system-ui, sans-serif" font-size="12" fill="white" text-anchor="middle" font-weight="700">Charge</text>
  </g>
</svg>
